<svg width="31" height="30" viewBox="0 0 31 30" fill="none" xmlns="http://www.w3.org/2000/svg">
<path d="M17.8145 10.3125C17.5658 10.3125 17.3273 10.2137 17.1515 10.0379C16.9757 9.86215 16.877 9.62359 16.877 9.37499V8.43749C16.877 8.10246 17.0557 7.79297 17.3457 7.62556C17.6357 7.45815 17.9932 7.45815 18.2832 7.62556C18.5732 7.79297 18.752 8.10247 18.752 8.43749V9.37499C18.752 9.62359 18.6532 9.86215 18.4774 10.0379C18.3016 10.2137 18.0631 10.3125 17.8145 10.3125Z" fill="#1C284C"/>
<path d="M22.4549 12.2343C22.2063 12.2343 21.9679 12.1356 21.7921 11.9598C21.6164 11.7838 21.5176 11.5454 21.5176 11.2968C21.5176 11.0482 21.6164 10.8099 21.7921 10.6341L22.4549 9.97116C22.6294 9.78973 22.8696 9.68615 23.1213 9.68363C23.3731 9.68133 23.6154 9.78031 23.7933 9.9584C23.9714 10.1365 24.0704 10.3786 24.0678 10.6303C24.0653 10.8821 23.9617 11.1223 23.7803 11.2968L23.1174 11.9596C22.9418 12.1358 22.7034 12.2345 22.4549 12.2343L22.4549 12.2343Z" fill="#1C284C"/>
<path d="M13.1737 12.2348C12.9251 12.2351 12.6866 12.1363 12.511 11.9601L11.8481 11.2974C11.6189 11.059 11.5321 10.7177 11.6197 10.3988C11.7074 10.0801 11.9565 9.83105 12.2754 9.7434C12.5941 9.65593 12.9356 9.74278 13.1737 9.97192L13.8365 10.6349C14.0123 10.8106 14.111 11.049 14.111 11.2976C14.111 11.5462 14.0123 11.7848 13.8365 11.9605C13.6607 12.1363 13.4223 12.2351 13.1737 12.2351L13.1737 12.2348Z" fill="#1C284C"/>
<path d="M25.3144 16.875H24.3769C24.0419 16.875 23.7324 16.6963 23.565 16.4062C23.3976 16.1162 23.3976 15.7588 23.565 15.4688C23.7324 15.1787 24.0419 15 24.3769 15H25.3144C25.6495 15 25.959 15.1787 26.1264 15.4688C26.2938 15.7588 26.2938 16.1162 26.1264 16.4062C25.959 16.6963 25.6495 16.875 25.3144 16.875Z" fill="#1C284C"/>
<path d="M23.1171 22.1782C22.8685 22.1786 22.63 22.0796 22.4544 21.9036L21.7917 21.2407H21.7915C21.5615 21.0025 21.4742 20.6608 21.5617 20.3415C21.6492 20.0221 21.8986 19.7727 22.2179 19.6852C22.5373 19.5977 22.879 19.685 23.1171 19.915L23.7801 20.5777V20.5779C23.9559 20.7537 24.0546 20.9921 24.0546 21.2407C24.0544 21.4893 23.9556 21.7278 23.7799 21.9036C23.6041 22.0794 23.3657 22.1782 23.1171 22.1782L23.1171 22.1782Z" fill="#1C284C"/>
<path d="M17.8145 24.375C17.5658 24.375 17.3273 24.2762 17.1515 24.1004C16.9757 23.9247 16.877 23.6861 16.877 23.4375V22.5C16.877 22.165 17.0557 21.8555 17.3457 21.6881C17.6357 21.5206 17.9932 21.5206 18.2832 21.6881C18.5732 21.8555 18.752 22.165 18.752 22.5V23.4375C18.752 23.6861 18.6532 23.9247 18.4774 24.1004C18.3016 24.2762 18.0631 24.375 17.8145 24.375Z" fill="#1C284C"/>
<path d="M7.21653 30C7.16965 30 7.12257 29.9964 7.0759 29.9895C6.29789 29.8715 2.33065 29.1165 0.673584 25.8216C0.1996 24.873 -0.0307735 23.8213 0.00329795 22.7613V15.3513C0.00329795 15.1521 0.0669142 14.9579 0.184728 14.7972C0.302334 14.6365 0.468282 14.5174 0.658289 14.4574L6.93418 12.4733C7.11792 12.4158 7.31504 12.4158 7.49899 12.4733L13.7749 14.4574H13.7751C13.9651 14.5174 14.131 14.6365 14.2489 14.7972C14.3667 14.9579 14.4301 15.1521 14.4301 15.3513V22.7844C14.4615 23.8364 14.2313 24.8797 13.76 25.8206C12.1025 29.1165 8.13501 29.8707 7.35716 29.9885L7.35695 29.9887C7.3107 29.9956 7.26382 29.9994 7.21674 29.9996L7.21653 30ZM1.87824 16.0382V22.785C1.84999 23.5444 2.01175 24.2988 2.3493 24.98C3.51887 27.3059 6.46782 27.977 7.21674 28.1124C7.96567 27.9771 10.9144 27.3061 12.0846 24.9796L12.0844 24.9794C12.4192 24.3062 12.581 23.5602 12.5555 22.8087L12.555 16.0388L7.21676 14.3513L1.87824 16.0382Z" fill="#1C284C"/>
<path d="M6.83129 23.4914C6.58247 23.4918 6.34391 23.3928 6.16834 23.2166L4.23243 21.2811C4.00161 21.0432 3.91351 20.7011 4.00098 20.3811C4.08846 20.0613 4.33832 19.8115 4.65809 19.724C4.97785 19.6365 5.32018 19.7246 5.55815 19.9554L6.83132 21.2282L9.82002 18.2399L9.81981 18.2397C9.99475 18.0595 10.2346 17.957 10.4857 17.9551C10.7368 17.9532 10.9781 18.052 11.1558 18.2297C11.3334 18.4071 11.4322 18.6486 11.4303 18.8997C11.4284 19.1506 11.3259 19.3907 11.1457 19.5654L7.49409 23.2164V23.2166C7.31852 23.3928 7.07995 23.4916 6.83136 23.4914L6.83129 23.4914Z" fill="#1C284C"/>
<path d="M17.8137 28.1247C15.8531 28.1233 13.9215 27.6533 12.1791 26.7536C11.9504 26.6354 11.7802 26.4284 11.7085 26.1811C11.6365 25.9337 11.6693 25.6677 11.7991 25.4453C11.9288 25.2229 12.1441 25.0634 12.3946 25.0042C12.6453 24.945 12.9092 24.991 13.125 25.1318C14.9836 26.0794 17.0859 26.441 19.1544 26.1689C21.223 25.8971 23.1603 25.0044 24.7114 23.6088C26.262 22.2132 27.3531 20.3803 27.8407 18.3517C28.3283 16.3233 28.1894 14.1946 27.4423 12.2467C26.6952 10.2989 25.375 8.62327 23.6561 7.44095C21.9372 6.25884 19.9002 5.62557 17.8141 5.62477C15.472 5.63565 13.2028 6.439 11.3759 7.90407C9.54862 9.36914 8.27126 11.4097 7.75167 13.6935C7.67926 14.0206 7.43778 14.2841 7.11846 14.3849C6.79891 14.4858 6.44989 14.4084 6.20292 14.1821C5.95578 13.9559 5.84822 13.615 5.92063 13.288C6.59027 10.2836 8.37173 7.6437 10.9076 5.89888C13.4434 4.15427 16.5454 3.43352 19.591 3.88202C22.6365 4.33052 25.3992 5.91458 27.3246 8.31629C29.2499 10.718 30.1948 13.7591 29.9699 16.8293C29.7449 19.8992 28.3665 22.7699 26.1119 24.8656C23.857 26.9609 20.8928 28.1255 17.8147 28.1253L17.8137 28.1247Z" fill="#1C284C"/>
<path d="M17.8136 24.375C16.0681 24.3811 14.3652 23.8377 12.9462 22.8215C12.7396 22.6783 12.5992 22.4586 12.5561 22.211C12.5132 21.9635 12.5714 21.7092 12.7176 21.5047C12.8639 21.3005 13.086 21.1636 13.3341 21.1245C13.5821 21.0854 13.8358 21.1475 14.0375 21.2969C15.1389 22.0844 16.4599 22.5052 17.8136 22.5C19.4754 22.4994 21.075 21.8684 22.2896 20.7347C23.5044 19.6007 24.2437 18.0482 24.3583 16.3906C24.473 14.7328 23.9545 13.0932 22.9075 11.8029C21.8606 10.5123 20.3631 9.66712 18.7174 9.43778C17.0716 9.20843 15.4 9.61189 14.0402 10.567C12.6801 11.5218 11.7333 12.9572 11.3903 14.5829C11.3402 14.8274 11.195 15.0419 10.9866 15.1787C10.7782 15.3158 10.5237 15.3639 10.2795 15.3128C10.0355 15.2618 9.82163 15.1153 9.68582 14.9063C9.54979 14.6972 9.50271 14.4425 9.55503 14.1985C9.99511 12.1074 11.2124 10.261 12.9608 9.03241C14.7094 7.80359 16.859 7.284 18.9752 7.57865C21.092 7.87308 23.018 8.95977 24.3645 10.619C25.7112 12.2785 26.3781 14.387 26.2307 16.5189C26.0832 18.6508 25.1323 20.6474 23.57 22.1058C22.0078 23.564 19.9503 24.3751 17.8132 24.3753L17.8136 24.375Z" fill="#1C284C"/>
<path d="M19.6894 1.875H15.9394C15.6044 1.875 15.2949 1.69629 15.1275 1.40625C14.9601 1.11621 14.9601 0.758786 15.1275 0.46875C15.2949 0.178714 15.6044 0 15.9394 0H19.6894C20.0245 0 20.334 0.178709 20.5014 0.46875C20.6688 0.758791 20.6688 1.11621 20.5014 1.40625C20.334 1.69629 20.0245 1.875 19.6894 1.875Z" fill="#1C284C"/>
<path d="M17.8145 5.62499C17.5658 5.62499 17.3273 5.52621 17.1515 5.35043C16.9757 5.17465 16.877 4.93609 16.877 4.68749V0.937487C16.877 0.602456 17.0557 0.292969 17.3457 0.125558C17.6357 -0.0418527 17.9932 -0.0418527 18.2832 0.125558C18.5732 0.292969 18.752 0.602467 18.752 0.937487V4.68749C18.752 4.93609 18.6532 5.17465 18.4774 5.35043C18.3016 5.52621 18.0631 5.62499 17.8145 5.62499Z" fill="#1C284C"/>
<path d="M9.85897 8.91951C9.61036 8.91993 9.3718 8.82116 9.19623 8.64495L7.87056 7.31928C7.64057 7.08113 7.55331 6.73942 7.64078 6.42008C7.72825 6.10075 7.9777 5.85131 8.29703 5.76383C8.61637 5.67636 8.9581 5.76362 9.19623 5.9936L10.5219 7.31928C10.6977 7.49506 10.7965 7.73362 10.7965 7.98223C10.7965 8.23083 10.6977 8.46918 10.5219 8.64496C10.3461 8.82074 10.1076 8.91951 9.85896 8.91951L9.85897 8.91951Z" fill="#1C284C"/>
<path d="M25.7694 8.91953C25.5208 8.91953 25.2822 8.82076 25.1065 8.64498C24.9307 8.4692 24.8319 8.23084 24.8319 7.98224C24.8319 7.73364 24.9307 7.49508 25.1065 7.3193L26.4321 5.99362C26.6069 5.81282 26.8469 5.70965 27.0982 5.70756C27.3498 5.70526 27.5915 5.80424 27.7693 5.98211C27.9472 6.15999 28.0462 6.40168 28.0439 6.6532C28.0418 6.90453 27.9386 7.14455 27.7578 7.31931L26.4322 8.64499C26.2566 8.82119 26.018 8.91996 25.7694 8.91954L25.7694 8.91953Z" fill="#1C284C"/>
<path d="M19.7983 16.8751H17.8143C17.5657 16.8751 17.3272 16.7763 17.1514 16.6005C16.9756 16.4248 16.8768 16.1862 16.8768 15.9376V13.1332C16.8768 12.7984 17.0555 12.4889 17.3456 12.3215C17.6356 12.1539 17.993 12.1539 18.2831 12.3215C18.5731 12.4889 18.7518 12.7984 18.7518 13.1332V15.0001H19.7983C20.1332 15.0001 20.4427 15.1788 20.6101 15.4688C20.7777 15.7589 20.7777 16.1163 20.6101 16.4063C20.4427 16.6964 20.1332 16.8751 19.7983 16.8751Z" fill="#1C284C"/>
</svg>
