<svg width="30" height="29" viewBox="0 0 30 29" fill="none" xmlns="http://www.w3.org/2000/svg">
<path d="M14.3343 2.25582C14.5438 1.6109 15.4562 1.61091 15.6657 2.25582L17.8049 8.83942C18.2467 10.1991 19.5137 11.1197 20.9434 11.1197H27.8658C28.5439 11.1197 28.8258 11.9874 28.2772 12.386L22.6769 16.4549C21.5203 17.2952 21.0363 18.7847 21.4781 20.1444L23.6172 26.728C23.8268 27.3729 23.0886 27.9092 22.54 27.5106L16.9397 23.4417C15.7831 22.6014 14.2169 22.6014 13.0603 23.4417L7.45997 27.5106C6.91137 27.9092 6.17323 27.3729 6.38278 26.728L8.52192 20.1444C8.96371 18.7847 8.47973 17.2952 7.32312 16.4549L1.72279 12.386C1.17419 11.9874 1.45613 11.1197 2.13424 11.1197H9.05664C10.4863 11.1197 11.7533 10.1991 12.1951 8.83942L14.3343 2.25582Z" stroke="#1C284C" stroke-width="2.6"/>
</svg>
